<svg xmlns="http://www.w3.org/2000/svg" viewBox="0 0 512 512">
  <defs>
    <linearGradient id="bg" x1="0" x2="1" y1="0" y2="1">
      <stop offset="0%" stop-color="#15803d"></stop>
      <stop offset="100%" stop-color="#10b981"></stop>
    </linearGradient>
    <linearGradient id="leaf" x1="0" x2="0" y1="0" y2="1">
      <stop offset="0%" stop-color="#bbf7d0"></stop>
      <stop offset="100%" stop-color="#86efac"></stop>
    </linearGradient>
  </defs>
  <rect width="512" height="512" rx="100" fill="url(#bg)"></rect>
  
  <circle cx="100" cy="100" r="60" fill="white" opacity="0.08"></circle>
  <circle cx="420" cy="420" r="80" fill="white" opacity="0.06"></circle>
  
  <path d="M256 80 C 180 200, 130 260, 130 340 C 130 410, 180 460, 256 460 C 332 460, 382 410, 382 340 C 382 260, 332 200, 256 80 Z" fill="url(#leaf)"></path>
  
  <circle cx="330" cy="290" r="44" fill="white"></circle>
  <circle cx="330" cy="290" r="20" fill="#15803d"></circle>
  <circle cx="335" cy="285" r="6" fill="white"></circle>
  
  <path d="M256 80 L 256 430" stroke="#15803d" stroke-width="3" opacity="0.3" fill="none"></path>
  <path d="M256 200 Q 220 240 200 280" stroke="#15803d" stroke-width="2" opacity="0.2" fill="none"></path>
  <path d="M256 200 Q 290 240 305 280" stroke="#15803d" stroke-width="2" opacity="0.2" fill="none"></path>
</svg>